<?xml version="1.0" encoding="UTF-8"?>
<svg width="56px" height="56px" viewBox="0 0 56 56" version="1.1" xmlns="http://www.w3.org/2000/svg" xmlns:xlink="http://www.w3.org/1999/xlink">
    <g id="核心功能" stroke="none" stroke-width="1" fill="none" fill-rule="evenodd">
        <g id="1920-设置-WLAN" transform="translate(-72.000000, -322.000000)">
            <g id="编组-4" transform="translate(40.000000, 298.000000)">
                <g id="编组-2" transform="translate(32.000000, 0.000000)">
                    <g id="编组-14" transform="translate(0.000000, 24.000000)">
                        <circle id="椭圆形" fill="#2151FF" cx="28" cy="28" r="28"></circle>
                        <g id="形状" transform="translate(11.000000, 15.000000)" fill="#FFFFFF" fill-rule="nonzero">
                            <path d="M6.32883603,13.541885 C12.6269313,7.4805557 22.3803338,7.4805557 28.6784291,13.541885 C28.8206053,13.6840204 28.9017787,13.8791897 28.9038637,14.0837284 C28.9057986,14.2882671 28.8284774,14.4851035 28.6891237,14.6302004 L26.0429539,17.396434 C25.7702655,17.6789047 25.3296108,17.6848666 25.0498763,17.40987 C22.9816728,15.472221 20.2911004,14.3992406 17.5009589,14.3994174 C14.7126616,14.4006127 12.0242252,15.4735013 9.95738875,17.40987 C9.6776543,17.6848666 9.23699959,17.6789047 8.96431116,17.396434 L6.31890525,14.6302004 C6.1792596,14.4853131 6.10166905,14.2884953 6.10347133,14.0838905 C6.10540305,13.8792857 6.18657134,13.6840187 6.32883603,13.541885 Z M0.220644964,7.18349934 C9.88045846,-2.39449978 25.1199315,-2.39449978 34.779745,7.18349934 C34.9195721,7.32579284 34.9988281,7.51987056 35,7.72278644 C35.001122,7.92570231 34.9240653,8.12072578 34.7858562,8.26470152 L32.1366308,11.0309352 C31.8636771,11.3148006 31.4206953,11.3183261 31.1435532,11.0388387 C27.4631752,7.41871137 22.5791595,5.39990399 17.5009589,5.3996738 C12.4222602,5.39966054 7.53768348,7.41847374 3.85683674,11.0388387 C3.57986233,11.3187572 3.1365387,11.315229 2.86375916,11.0309352 L0.213769812,8.26470152 C0.0756610785,8.12062109 -0.00125874398,7.92553834 0,7.72262218 C0.00132186411,7.51970602 0.0807159069,7.32568724 0.220644964,7.18349934 Z M22.58628,21.0012317 C22.7278011,20.8575313 22.8057376,20.6597802 22.8016888,20.4546675 C22.7976399,20.2495547 22.7119645,20.0552607 22.5648907,19.9176584 C19.6416408,17.3595629 15.3602769,17.3595629 12.4370271,19.9176584 C12.2898512,20.0551501 12.2040355,20.249383 12.199842,20.4544967 C12.1956486,20.6596105 12.273449,20.857424 12.4148738,21.0012317 L16.9929615,25.7804931 C17.1271419,25.9209522 17.3100796,26 17.5009589,26 C17.6918381,26 17.8747759,25.9209522 18.0089563,25.7804931 L22.58628,21.0012317 Z"></path>
                        </g>
                    </g>
                </g>
            </g>
        </g>
    </g>
</svg>