<?xml version="1.0" encoding="UTF-8"?>
<svg width="56px" height="56px" viewBox="0 0 56 56" version="1.1" xmlns="http://www.w3.org/2000/svg" xmlns:xlink="http://www.w3.org/1999/xlink">
    <g id="核心功能" stroke="none" stroke-width="1" fill="none" fill-rule="evenodd">
        <g id="1920-设置-WLAN" transform="translate(-72.000000, -426.000000)">
            <g id="编组-4" transform="translate(40.000000, 298.000000)">
                <g id="编组-2备份" transform="translate(32.000000, 104.000000)">
                    <g id="编组-13" transform="translate(0.000000, 24.000000)">
                        <circle id="椭圆形" fill="#2151FF" cx="28" cy="28" r="28"></circle>
                        <g id="lanya-F" transform="translate(17.000000, 11.000000)" fill="#FFFFFF" fill-rule="nonzero">
                            <path d="M10.0924886,0.392524203 C11.5828784,-0.383630505 13.0134685,0.155112175 13.8828626,0.607108152 C14.8785761,1.17724732 15.8344665,1.81330762 16.7440429,2.51096999 L19.5776235,4.56549716 C20.3412182,5.12250231 21.1140129,5.67494183 21.6660092,6.21825013 C22.2870049,6.82547705 23,7.75229708 23,9.0763257 C23,10.3957887 22.2870049,11.3226087 21.6660092,11.9298357 C21.109413,12.473144 20.3412182,13.0301491 19.5776235,13.5825886 L14.1588607,17.5044527 L19.5776235,21.4217512 C20.3412182,21.9787563 21.1140129,22.5357615 21.6660092,23.0745041 C22.2870049,23.6817311 23,24.6085511 23,25.9325797 C23,27.2520427 22.2870049,28.1788628 21.6660092,28.7906553 C21.109413,29.329398 20.3412182,29.8864031 19.5776235,30.4388426 L16.7440429,32.4933698 C15.8344258,33.1909761 14.8785393,33.8270338 13.8828626,34.3972317 C13.0134685,34.844662 11.5828784,35.3834047 10.0924886,34.60725 C8.61589872,33.8402265 8.23410134,32.383795 8.09610229,31.4250157 C7.95810324,30.4844988 7.95810324,29.2654793 7.95810324,27.9642788 L7.95810324,22.458146 L3.79513181,25.9964983 C2.82974469,26.8159924 1.3778141,26.7035671 0.552154069,25.7453895 C-0.273505965,24.7872118 -0.160234784,23.3461242 0.805152333,22.5266302 L6.71611176,17.5044527 L0.805152333,12.473144 C-0.160234761,11.6536499 -0.27350593,10.2125624 0.552154096,9.25438475 C1.37781412,8.29620714 2.82974469,8.18378185 3.79513181,9.00327585 L7.95810324,12.5416282 L7.95829254,6.60523149 C7.95980693,5.46779815 7.97343647,4.41533913 8.09610229,3.57932412 C8.23410134,2.62054478 8.62049869,1.1641133 10.0924886,0.392524203 Z M13.533265,22.7001236 C13.1054679,22.3942274 12.8938694,22.2389964 12.7282705,22.3257431 C12.5580717,22.4079242 12.5580717,22.6681643 12.5580717,23.1932102 L12.5580717,27.8090479 L12.5629051,28.8849738 C12.5647729,29.270665 12.5815826,29.4663664 12.7328705,29.5394163 C12.8984693,29.626163 13.096268,29.4846289 13.4872653,29.2015607 L14.1588607,28.7176054 L16.7532429,26.8365717 L17.3512388,26.4028382 C17.6364368,26.1928198 17.7790358,26.0878107 17.7790358,25.9371453 C17.7790358,25.7819144 17.6364368,25.6769052 17.3512388,25.4714525 L16.7532429,25.0331534 Z M12.7328705,5.46035789 C12.5815826,5.53340774 12.5647729,5.7327166 12.5629051,6.11600288 L12.5626716,7.18616071 L12.5580717,11.806564 C12.5580717,12.3316099 12.5580717,12.59185 12.7282705,12.6740311 C12.8938694,12.7653434 13.1054679,12.6101124 13.533265,12.2996505 L16.7532429,9.96662081 L17.3512388,9.5328873 C17.6364368,9.32286896 17.7790358,9.2178598 17.7790358,9.06719447 C17.7790358,8.91196353 17.6364368,8.80695436 17.3512388,8.60150165 L16.7532429,8.16320252 L14.1588607,6.28673437 C13.9352763,6.12503244 13.7114109,5.96371377 13.4872653,5.80277908 C13.096268,5.51971089 12.8984693,5.3781768 12.7328705,5.46035789 Z" id="形状结合"></path>
                        </g>
                    </g>
                </g>
            </g>
        </g>
    </g>
</svg>